<?xml version="1.0" encoding="UTF-8"?>
<svg width="700pt" height="700pt" version="1.1" viewBox="0 0 700 700" xmlns="http://www.w3.org/2000/svg" xmlns:xlink="http://www.w3.org/1999/xlink" fill="#fd8101"> 
 <g>
  <path d="m300.72 337.68c-8.9609 0-16.238-7.2812-16.238-16.801v-26.879c0-8.9609 7.2812-16.801 16.238-16.801h106.4c4.4805 0 8.3984 1.6797 11.199 5.0391 0.55859 0.55859 0.55859 0.55859 1.1211 0.55859 3.9219 3.3594 10.078 2.8008 14-0.55859 3.9219-3.9219 3.9219-10.641 0-14.559-7.2812-7.2812-16.238-11.199-26.32-11.199h-106.4c-20.16 0-36.961 16.801-36.961 37.52v26.879c0 20.719 16.801 37.52 36.961 37.52h67.199c5.6016 0 10.641-4.4805 10.641-10.641 0-6.7188-5.6016-10.641-10.641-10.641l-67.199 0.003906z"/>
  <path d="m602.56 161.28c0-3.3594-0.55859-7.2812-1.6797-10.641l-22.957-94.641c-3.9219-16.801-19.039-28.559-35.84-28.559h-376.32c-16.801 0-31.922 11.762-35.84 28.559l-23.523 94.641c-1.1211 3.3594-1.1211 7.2812-1.6797 10.641v1.1211c0 19.602 11.199 38.641 29.68 46.48v194.88h-16.797c-6.7188 0-12.32 3.9219-16.238 10.078-5.0391 8.3984-6.1602 22.961 0.55859 33.602 0.55859 0.55859 0.55859 1.1211 1.1211 1.6797 37.52 40.32 39.199 40.32 44.238 40.32h198.24c5.6016 0 10.641-4.4805 10.641-10.641 0-5.6016-4.4805-10.641-10.641-10.641h-194.32c-5.6016-5.0391-19.602-19.602-31.922-33.039-1.6797-3.3594-1.1211-8.9609 0-11.762h265.44c5.6016 0 10.641-4.4805 10.641-10.641s-4.4805-10.641-10.641-10.641h-229.6l0.003906-189.28c15.68-0.55859 29.68-7.8398 38.641-20.16 8.9609 12.32 23.52 20.16 39.762 20.16 16.238 0 30.801-7.8398 39.762-20.16 8.9609 12.32 23.52 20.16 39.762 20.16 16.238 0 30.801-7.8398 39.762-20.16 8.9609 12.32 23.52 20.16 39.762 20.16 16.238 0 30.801-7.8398 39.762-20.16 8.9609 12.32 23.52 20.16 39.762 20.16 16.238 0 30.801-7.8398 39.762-20.16 8.9609 11.762 22.961 19.602 38.641 20.16v136.08c0 5.6016 4.4805 10.641 10.641 10.641 5.6016 0 10.641-4.4805 10.641-10.641v-140c18.48-7.8398 29.68-26.879 29.68-46.48 1.1016 0 1.1016-1.1172 1.1016-1.1172zm-49.277 30.797c-12.879 0-23.52-8.3984-27.441-19.602h54.32c-5.0391 16.242-19.602 19.602-26.879 19.602zm-79.52 0c-12.879 0-23.52-8.3984-27.441-19.602l54.879 0.003907c-3.918 11.199-15.121 19.598-27.438 19.598zm-80.082 0c-12.879 0-23.52-8.3984-27.441-19.602h55.441c-4.4805 11.203-15.121 19.602-28 19.602zm-107.52-19.598h55.441c-3.9219 11.199-15.121 19.602-27.441 19.602-12.879-0.003906-23.52-8.4023-28-19.602zm-52.082 19.598c-12.879 0-23.52-8.3984-27.441-19.602h55.441c-4.4766 11.203-15.117 19.602-28 19.602zm-106.4-19.598h54.32c-3.9219 11.199-15.121 19.602-27.441 19.602-7.2773-0.003906-21.277-2.8008-26.879-19.602zm38.082-123.76h376.32c7.2812 0 14 5.0391 15.68 12.32l22.398 90.719-452.48 0.003907 22.398-90.719c1.6836-7.2812 8.4023-12.324 15.684-12.324z"/>
  <path d="m581.28 456.4-36.961-95.762c-5.6016-14-20.16-20.719-34.719-16.238l-62.719 20.719-23.52-59.922c-2.8008-7.2812-15.121-21.84-33.602-11.762-12.32 6.7188-17.922 21.281-12.879 34.16l44.238 114.8-16.801-5.6016c-15.121-5.0391-31.922 3.9219-38.641 19.602-2.2383 5.6016-2.2383 11.762 0.55859 16.801 2.2383 5.0391 6.1602 8.3984 11.199 10.078l68.32 22.961 6.7188 17.359c1.6797 4.4805 5.0391 7.2812 8.9609 8.9609 1.6797 0.55859 10.641 0.55859 12.879-1.1211l98.559-53.199c8.4062-4.4727 11.766-13.996 8.4062-21.836zm-123.76 30.801-71.68-24.078c2.2383-5.6016 7.8398-8.9609 12.32-7.2812l38.078 12.879c3.9219 1.1211 7.8398 0 10.641-2.8008 2.8008-2.8008 3.9219-7.2812 2.2383-11.199l-52.641-135.52c-1.1211-2.2383 0.55859-6.1602 3.3594-7.8398 1.1211-0.55859 2.2383-0.55859 2.8008-0.55859 0.55859 0 1.1211 0.55859 1.1211 1.1211l26.879 69.441c2.2383 5.0391 7.8398 7.8398 12.879 6.1602l71.68-23.52c3.9219-1.1211 7.2812 0 8.9609 3.9219l35.84 92.961-90.719 48.719-6.1602-16.238c-0.55859-2.8086-2.7969-5.0469-5.5977-6.168z"/>
 </g>
</svg>
