<?xml version="1.0" encoding="UTF-8"?>
<svg width="700pt" height="700pt" version="1.1" viewBox="0 0 700 700" xmlns="http://www.w3.org/2000/svg" fill="#fd8101">
 <g>
  <path d="m132.21 527.02h346.59c7.7305 0 14-6.2695 14-14s-6.2695-14-14-14h-346.59c-7.832-0.007813-15.344-3.125-20.883-8.6641-5.5391-5.5391-8.6562-13.051-8.6641-20.887v-378.93c0.007812-7.8359 3.125-15.348 8.6641-20.887 5.5391-5.5391 13.051-8.6562 20.883-8.6641h99.027v83.141c-0.066407 14.129 7.3125 27.246 19.426 34.52 12.109 7.2734 27.16 7.6289 39.598 0.92969l32.125-17.043 32.105 17.043h0.003906c12.441 6.6016 27.434 6.1992 39.504-1.0625 12.07-7.2617 19.449-20.32 19.445-34.406v-83.121h97.777-0.003906c7.8242 0.027344 15.312 3.1562 20.836 8.6914 5.5234 5.5391 8.6289 13.035 8.6406 20.859v123.74-0.003906c0 7.7344 6.2656 14 14 14 7.7305 0 14-6.2656 14-14v-123.74c-0.015625-15.262-6.082-29.891-16.871-40.68-10.793-10.789-25.422-16.855-40.68-16.871h-378.93c-15.258 0.015625-29.887 6.082-40.676 16.871-10.789 10.789-16.859 25.418-16.871 40.68v378.93-0.003906c0.011719 15.262 6.082 29.891 16.871 40.68 10.789 10.789 25.418 16.855 40.676 16.871zm253.25-382.89c0 4.2578-2.2305 8.207-5.8828 10.398-3.6484 2.1953-8.1797 2.3164-11.941 0.31641l-34.57-18.348c-6.6562-3.5586-14.645-3.5586-21.301 0l-34.699 18.441c-3.7617 2.0117-8.3008 1.8945-11.953-0.30078-3.6562-2.1953-5.8867-6.1523-5.875-10.414v-83.234h126.22z"/>
  <path d="m267.4 340.46h-119.22c-7.7305 0-14 6.2695-14 14 0 7.7305 6.2695 14 14 14h119.22c7.7344 0 14-6.2695 14-14 0-7.7305-6.2656-14-14-14z"/>
  <path d="m267.4 413.13h-119.22c-7.7305 0-14 6.2695-14 14 0 7.7344 6.2695 14 14 14h119.22c7.7344 0 14-6.2656 14-14 0-7.7305-6.2656-14-14-14z"/>
  <path d="m541.93 332.43-42.148 42.168-17.586-17.586 0.003907 0.003906c-5.4961-5.3047-14.23-5.2227-19.629 0.17969-5.3945 5.4023-5.4688 14.133-0.16016 19.625l21.297 21.316h0.003907c4.2617 4.2578 10.039 6.6445 16.062 6.6445 6.0234 0 11.797-2.3867 16.062-6.6445l45.902-45.902h-0.003906c5.4727-5.4688 5.4727-14.336 0-19.805-5.4688-5.4688-14.336-5.4688-19.805 0z"/>
  <path d="m512.08 253.31c-30.043-0.007813-58.855 11.922-80.102 33.164-21.246 21.242-33.184 50.055-33.188 80.098 0 30.043 11.934 58.855 33.176 80.098 21.246 21.246 50.059 33.18 80.102 33.176 30.043 0 58.855-11.938 80.098-33.184 21.238-21.246 33.172-50.059 33.164-80.102-0.039062-30.023-11.984-58.809-33.211-80.039-21.23-21.23-50.016-33.172-80.039-33.211zm0 198.52c-22.617 0.003906-44.309-8.9766-60.301-24.965-15.996-15.988-24.984-37.676-24.988-60.293 0-22.617 8.9805-44.309 24.969-60.301 15.992-15.992 37.68-24.98 60.297-24.98 22.613-0.003906 44.305 8.9805 60.297 24.973 15.992 15.988 24.977 37.68 24.977 60.297-0.023437 22.602-9.0117 44.273-24.996 60.258-15.98 15.988-37.648 24.98-60.254 25.012z"/>
 </g>
</svg> 
