<?xml version="1.0" encoding="UTF-8"?>
<svg width="700pt" height="700pt" version="1.1" viewBox="0 0 700 700" xmlns="http://www.w3.org/2000/svg" fill="#fd8101">
 <g>
  <path d="m116.38 458.92h37.012c3.9414 16.637 15.199 30.598 30.629 37.977 15.426 7.375 33.359 7.375 48.785 0 15.426-7.3789 26.684-21.34 30.625-37.977h202.56c3.9102 16.758 15.238 30.824 30.777 38.215 15.539 7.3945 33.598 7.3086 49.066-0.23438 15.469-7.5391 26.66-21.711 30.406-38.508 13.406-1.0859 25.91-7.1719 35.039-17.043 9.1328-9.8711 14.223-22.812 14.262-36.262v-158.08c0.011719-7.6562-1.5859-15.227-4.6914-22.223l-10.711-24.113c0-0.24609-0.21094-0.47266-0.31641-0.71875l-24.5-55.211 0.003907-0.003906c-4.3125-9.7031-11.348-17.945-20.254-23.727s-19.301-8.8555-29.922-8.8398h-92.398v-12.566c0-11.113-4.4062-21.777-12.254-29.648-7.8438-7.8711-18.492-12.312-29.605-12.352h-73.133c-7.25 0-13.125 5.875-13.125 13.125s5.875 13.125 13.125 13.125h73.078c4.1719-0.019531 8.1758 1.6406 11.109 4.6016 2.9375 2.9609 4.5586 6.9805 4.5039 11.148v333.06h-152.99c-3.8945-16.695-15.152-30.723-30.609-38.137-15.461-7.4141-33.445-7.4141-48.902 0-15.461 7.4141-26.719 21.441-30.613 38.137h-36.961c-4.1484-0.042969-8.1172-1.7227-11.035-4.6719-2.918-2.9492-4.5586-6.9297-4.5586-11.078v-124.78c0-7.25-5.875-13.125-13.125-13.125-7.2461 0-13.125 5.875-13.125 13.125v124.71c-0.015625 11.121 4.3789 21.801 12.223 29.688 7.8438 7.8867 18.496 12.34 29.621 12.383zm404.62 17.273v-0.003906c-8.0859 0-15.84-3.2109-21.559-8.9297-5.7148-5.7188-8.9258-13.473-8.9258-21.559s3.2148-15.844 8.9336-21.559c5.7188-5.7148 13.477-8.9258 21.562-8.9219 8.0859 0.003906 15.84 3.2188 21.555 8.9375 5.7148 5.7227 8.9219 13.48 8.918 21.566-0.011718 8.0781-3.2305 15.82-8.9453 21.531-5.7148 5.7148-13.461 8.9258-21.539 8.9336zm75.758-240.77c1.6094 3.6523 2.4375 7.5977 2.4336 11.586v46.848h-74.57c-0.63281 0.003906-1.2422-0.24219-1.6914-0.69141-0.45312-0.44531-0.70312-1.0547-0.70312-1.6875v-70.527c0-1.3203 1.0703-2.3945 2.3945-2.3945h64.75zm-154-97h92.398c5.5234-0.003906 10.93 1.5977 15.562 4.6094 4.6328 3.0117 8.2891 7.3008 10.531 12.348l16.398 36.926h-53.027c-7.5938 0.003906-14.879 3.0234-20.25 8.3945-5.3711 5.3711-8.3906 12.656-8.3945 20.25v70.527c0.007812 7.5938 3.0312 14.871 8.4023 20.238 5.3711 5.3711 12.652 8.3867 20.242 8.3906h74.602v84.98h0.003906c-0.003906 6.5664-2.3555 12.91-6.6328 17.895-4.2734 4.9805-10.191 8.2656-16.68 9.2656-4.0312-16.594-15.348-30.473-30.789-37.766-15.441-7.293-33.352-7.2109-48.727 0.21875-15.375 7.4258-26.57 21.41-30.453 38.035h-23.188zm-234.34 276.81c8.0469 0.011719 15.762 3.1992 21.469 8.875 5.7031 5.6758 8.9336 13.375 8.9844 21.418v0.45703c-0.074219 8.0625-3.3438 15.77-9.0938 21.43-5.7461 5.6562-13.5 8.8086-21.566 8.7578-8.0664-0.050781-15.781-3.3008-21.457-9.0312-5.6758-5.7305-8.8477-13.477-8.8164-21.543 0.027344-8.0625 3.25-15.789 8.9648-21.48s13.453-8.8867 21.516-8.8828z"/>
  <path d="m87.656 83.809h143.05c7.25 0 13.125-5.8789 13.125-13.125 0-7.25-5.875-13.125-13.125-13.125h-143.05c-7.2461 0-13.125 5.875-13.125 13.125 0 7.2461 5.8789 13.125 13.125 13.125z"/>
  <path d="m87.656 154.42h96.688c7.25 0 13.125-5.8789 13.125-13.125 0-7.25-5.875-13.125-13.125-13.125h-96.688c-7.2461 0-13.125 5.875-13.125 13.125 0 7.2461 5.8789 13.125 13.125 13.125z"/>
  <path d="m87.656 225.03h56.734c7.25 0 13.125-5.875 13.125-13.125 0-7.2461-5.875-13.125-13.125-13.125h-56.734c-7.2461 0-13.125 5.8789-13.125 13.125 0 7.25 5.8789 13.125 13.125 13.125z"/>
 </g>
</svg>
