<?xml version="1.0" encoding="UTF-8"?>
<svg width="700pt" height="700pt" version="1.1" viewBox="0 0 700 700" xmlns="http://www.w3.org/2000/svg">
 <g fill="none" stroke="#fd8101" stroke-linecap="round" stroke-linejoin="round" stroke-miterlimit="10" stroke-width="1.3">
  <path transform="matrix(23.333 0 0 23.333 70 0)" d="m12.473 6.5051c0 1.8556-1.5042 3.3599-3.3599 3.3599s-3.3599-1.5044-3.3599-3.3599c0-1.8557 1.5042-3.3601 3.3599-3.3601s3.3599 1.5044 3.3599 3.3601"/>
  <path transform="matrix(23.333 0 0 23.333 70 0)" d="m12.83 12.684h-8.223c-2.025 0-3.666 1.641-3.666 3.666v4.506h16.191v-4.506c0-0.099944-0.004017-0.19905-0.012053-0.29799"/>
  <path transform="matrix(23.333 0 0 23.333 70 0)" d="m20.163 6.9121c0 1.1536-0.93516 2.089-2.089 2.089-1.1538 0-2.089-0.93532-2.089-2.089 0-1.1538 0.93516-2.0891 2.089-2.0891 1.1538 0 2.089 0.93532 2.089 2.0891"/>
  <path transform="matrix(23.333 0 0 23.333 70 0)" d="m20.78 10.752h-5.507c-1.2589 0-2.279 1.02-2.279 2.279v2.8009h10.065v-2.8009c-0.001172-1.2579-1.0212-2.279-2.2791-2.279z"/>
 </g>
</svg>
